<?xml version="1.0" standalone="no"?>
<!DOCTYPE svg PUBLIC "-//W3C//DTD SVG 20010904//EN"
 "http://www.w3.org/TR/2001/REC-SVG-20010904/DTD/svg10.dtd">
<svg version="1.0" xmlns="http://www.w3.org/2000/svg"
 width="462.000000pt" height="413.000000pt" viewBox="0 0 462.000000 413.000000"
 preserveAspectRatio="xMidYMid meet">
<metadata>
Created by potrace 1.16, written by Peter Selinger 2001-2019
</metadata>
<g transform="translate(0.000000,413.000000) scale(0.100000,-0.100000)"
fill="#000000" stroke="none">
<path d="M3616 3795 c14 -56 32 -90 75 -138 25 -29 38 -52 33 -57 -5 -5 -34
-13 -64 -18 -49 -8 -52 -10 -27 -16 33 -10 34 -24 5 -62 -20 -25 -17 -24 22 9
24 21 56 40 70 43 14 3 34 10 45 15 11 5 32 13 47 18 16 6 26 16 23 23 -3 7
11 30 30 50 56 59 76 138 35 138 -11 0 -24 -8 -27 -17 -4 -10 -27 -43 -52 -73
-25 -30 -46 -57 -48 -59 -5 -7 -133 112 -133 124 0 6 -9 20 -21 31 -20 18 -20
18 -13 -11z"/>
<path d="M2993 3724 c24 -29 21 -41 -5 -18 -12 10 -18 14 -15 7 4 -6 3 -14 -2
-17 -5 -4 8 -49 31 -104 45 -110 58 -172 34 -172 -8 0 -25 4 -39 9 -13 5 -30
5 -38 1 -16 -10 -14 -13 26 -26 25 -8 30 -15 28 -38 -2 -26 0 -28 28 -22 18 3
41 0 58 -8 14 -8 45 -17 66 -21 75 -12 85 -15 85 -30 0 -8 5 -15 10 -15 13 0
13 67 0 75 -24 15 48 65 92 65 48 0 99 21 96 38 -1 9 1 23 5 30 5 6 4 12 0 12
-5 0 -15 -6 -22 -12 -12 -11 -13 -10 -7 6 4 13 2 17 -8 13 -7 -3 -19 0 -25 6
-8 8 -11 8 -11 -2 0 -11 -3 -11 -15 -1 -8 7 -15 9 -15 5 0 -4 -6 -3 -12 2 -15
10 -51 10 -120 -1 -40 -7 -48 -6 -48 7 0 9 -6 22 -13 29 -27 26 -49 69 -62
115 -7 26 -14 39 -14 28 -1 -14 -7 -9 -21 20 -18 36 -19 33 -3 -15 3 -8 -4 -4
-16 10 -11 14 -21 21 -21 16 0 -5 -10 -1 -22 10 -23 19 -23 19 -5 -2z"/>
<path d="M2510 3600 c-8 -20 -11 -69 -8 -154 4 -116 3 -124 -13 -115 -26 14
-37 11 -49 -12 -8 -15 -8 -24 0 -34 16 -20 156 -13 200 10 25 13 46 15 89 11
40 -5 52 -4 41 3 -8 6 -36 11 -62 11 -69 0 -78 6 -78 51 0 32 -4 39 -19 39
-15 0 -20 9 -24 43 -12 108 -31 177 -48 177 -9 0 -22 -13 -29 -30z"/>
<path d="M2884 3210 c-7 -19 -12 -27 -13 -17 -2 33 -21 17 -21 -19 0 -23 -4
-33 -11 -28 -8 5 -10 -4 -7 -29 3 -31 2 -34 -11 -24 -12 10 -14 9 -8 -5 3 -10
2 -20 -2 -23 -5 -3 -7 -13 -5 -23 5 -17 -55 -76 -132 -130 -17 -12 -37 -36
-44 -54 -7 -18 -43 -103 -80 -188 -38 -85 -87 -198 -110 -250 -22 -52 -44 -97
-48 -100 -8 -5 -72 -142 -72 -154 0 -4 -22 -53 -49 -109 -48 -102 -77 -167
-142 -324 -19 -46 -37 -83 -40 -83 -3 0 -20 36 -38 80 -19 44 -37 80 -42 80
-5 0 -12 12 -15 28 -4 15 -20 56 -37 92 -28 63 -43 98 -184 430 -112 263 -134
315 -142 320 -4 3 -22 41 -40 85 -18 44 -60 143 -93 220 -33 77 -67 157 -75
178 -15 35 -19 37 -60 37 -23 0 -43 -4 -43 -10 0 -6 -97 -10 -270 -10 -148 0
-270 -2 -270 -5 0 -3 20 -48 45 -101 25 -52 45 -99 45 -105 0 -5 4 -9 9 -9 4
0 23 -35 41 -77 53 -127 169 -398 231 -543 32 -74 65 -155 75 -180 9 -25 23
-52 30 -60 7 -8 32 -62 57 -120 25 -58 80 -186 122 -285 137 -321 188 -435
195 -435 3 0 14 -23 24 -51 11 -28 47 -114 82 -191 35 -77 64 -144 64 -149 0
-21 87 -189 94 -182 5 4 6 3 3 -3 -10 -17 13 -75 26 -67 6 3 7 1 3 -6 -11 -16
13 -83 27 -74 6 4 8 0 4 -10 -3 -10 -2 -17 4 -17 6 0 7 -4 4 -10 -3 -6 1 -7 9
-4 10 4 16 1 16 -7 0 -7 3 -9 6 -6 4 4 2 13 -5 20 -9 11 -8 14 6 12 10 -1 25
-4 33 -8 8 -3 52 -7 97 -9 81 -3 105 6 82 29 -7 7 -2 20 15 38 18 19 24 35 21
49 -5 15 -4 17 3 8 7 -10 27 29 72 135 35 81 67 150 71 153 4 3 24 44 45 90
93 215 170 395 215 505 27 66 74 170 103 230 95 193 196 426 196 452 0 37 35
148 68 215 21 43 26 62 18 75 -5 9 -9 44 -9 76 0 48 3 61 19 70 28 15 106 97
132 137 42 68 39 65 56 51 14 -12 16 -10 16 17 0 78 -81 101 -135 38 -16 -20
-36 -36 -43 -36 -17 0 -32 43 -32 93 0 35 -9 54 -49 110 -35 48 -52 82 -57
113 -4 32 -10 44 -20 40 -9 -3 -14 5 -16 27 l-3 32 -11 -35z"/>
<path d="M3653 3214 c-59 -27 -81 -53 -89 -106 -6 -33 -9 -37 -33 -32 -36 6
-59 -10 -45 -33 6 -10 20 -22 32 -28 16 -7 20 -15 16 -30 -4 -11 -11 -21 -15
-23 -12 -5 -11 -102 1 -102 6 0 10 -7 10 -16 0 -20 30 -84 39 -84 4 0 8 13 8
30 0 16 12 46 26 68 15 21 27 48 27 59 0 59 35 69 96 28 20 -14 41 -25 46 -25
18 0 -5 22 -58 56 -57 37 -63 48 -39 80 8 10 15 39 15 64 0 25 4 61 10 79 5
19 9 36 7 37 -1 1 -25 -9 -54 -22z"/>
<path d="M2325 3118 c17 -88 36 -135 65 -161 54 -51 31 -74 -63 -62 -48 5 -51
5 -33 -10 11 -8 23 -15 28 -15 14 0 9 -14 -17 -44 -29 -34 -30 -37 -10 -30 8
4 15 10 15 15 0 15 76 48 111 48 70 0 119 12 119 30 0 9 16 29 35 44 51 41 96
137 64 137 -12 0 -129 -97 -142 -117 -13 -20 -23 -15 -50 25 -14 20 -40 53
-57 72 -18 19 -39 49 -47 67 -17 42 -26 42 -18 1z"/>
<path d="M2140 2712 c0 -70 17 -114 58 -150 l27 -23 -27 -20 c-35 -26 -35 -42
-3 -57 36 -16 65 -15 71 3 4 10 13 13 25 10 14 -5 19 -1 19 12 0 15 2 16 10 3
8 -13 10 -12 10 3 0 14 -5 17 -20 12 -22 -7 -27 9 -7 22 7 4 28 27 46 50 19
23 37 40 41 38 7 -4 30 18 44 43 11 18 -4 15 -44 -10 -20 -12 -54 -22 -80 -23
-41 -2 -48 1 -75 37 -17 21 -45 55 -62 76 l-33 37 0 -63z"/>
<path d="M3332 2643 c-14 -26 -25 -100 -26 -164 -1 -55 -2 -56 -24 -48 -33 13
-34 12 -30 -23 2 -22 8 -32 17 -30 7 1 24 -4 36 -12 18 -12 24 -28 30 -78 3
-35 10 -72 14 -83 5 -11 14 -33 20 -48 12 -31 26 -29 34 5 3 13 10 42 16 65 9
34 8 50 -5 83 -9 23 -14 43 -11 46 3 3 21 6 41 7 20 1 36 4 36 5 0 10 -47 41
-61 42 -40 0 -45 31 -23 152 5 29 1 44 -16 68 -24 34 -36 37 -48 13z"/>
<path d="M3120 2409 c0 -4 -11 -21 -25 -37 -13 -16 -26 -45 -27 -63 -3 -32 -6
-34 -43 -39 -32 -4 -41 -10 -43 -27 -3 -17 0 -21 12 -17 12 4 16 0 16 -15 0
-26 15 -27 29 -3 9 15 12 15 21 2 13 -19 13 -47 0 -55 -16 -10 -12 -32 7 -40
24 -9 61 39 65 85 2 28 8 36 26 38 12 2 22 10 22 18 0 12 7 11 31 -7 28 -20
30 -20 21 -3 -19 36 -49 56 -73 49 -16 -6 -18 -9 -8 -16 7 -4 10 -11 7 -14
-11 -11 -28 5 -28 24 0 10 12 26 26 35 21 14 25 24 22 54 -3 33 -6 37 -30 38
-16 1 -28 -2 -28 -7z"/>
</g>
</svg>
